<?xml version="1.0" encoding="utf-8"?>
<!-- Generator: Adobe Illustrator 18.1.1, SVG Export Plug-In . SVG Version: 6.00 Build 0)  -->
<svg version="1.1" id="Layer_1" xmlns="http://www.w3.org/2000/svg" xmlns:xlink="http://www.w3.org/1999/xlink" x="0px" y="0px"
	 viewBox="0 0 15 15" enable-background="new 0 0 15 15" xml:space="preserve">
<g>
	<path fill="#0591B4" d="M12.6,0C9.8,0-0.7,0,1.7,0C0,0.1,0,1.7,0,1.7v11.2c0,0-0.2,2.1,1.6,2.1s9,0,11.3,0s2-2.4,2-2.4V2
		C15,2,15.3,0,12.6,0z M6.3,12.4V7.5h-1V5.9h1c0,0,0-0.2,0-1.3c0-1.2,0.6-1.8,2.1-1.8c0.2,0,1.3,0,1.3,0v1.7c0,0-0.7,0-1,0
		C8.3,4.4,8.2,4.6,8.2,5c0,0.3,0,0.9,0,0.9h1.5L9.6,7.5H8.2v4.8H6.3z"/>
</g>
</svg>
