<?xml version="1.0" encoding="utf-8"?>
<!-- Generator: Adobe Illustrator 18.1.1, SVG Export Plug-In . SVG Version: 6.00 Build 0)  -->
<svg version="1.1" id="Layer_1" xmlns="http://www.w3.org/2000/svg" xmlns:xlink="http://www.w3.org/1999/xlink" x="0px" y="0px"
	 viewBox="0 0 15 15" enable-background="new 0 0 15 15" xml:space="preserve">
<path fill="#0591B4" d="M9.5,5L15,5V3.1h0c0-1.6-1.3-3-3-3H3.9H3c0,0-1,0.2-1.1,0.2L1.3,0.7C0.5,1.2,0,2.1,0,3.1V5l5.5,0
	C7,3.9,7.9,3.9,9.5,5z"/>
<path fill="none" stroke="#0591B4" stroke-miterlimit="10" d="M3.3,14.4h8.5c1.5,0,2.8-1.6,2.8-3.5V3.1h-4.1H4.6H0.5V11
	C0.5,12.9,1.8,14.4,3.3,14.4z"/>
<path fill="#0591B4" d="M10.1,4.5C9.8,4.2,9.5,4,9.1,3.8C8.6,3.6,8.1,3.5,7.5,3.5c-0.6,0-1.2,0.1-1.7,0.4C5.4,4,5.1,4.2,4.8,4.5
	C4,5.2,3.4,6.3,3.4,7.6c0,2.3,1.8,4.1,4,4.1c2.2,0,4-1.8,4-4.1C11.5,6.3,11,5.2,10.1,4.5z M7.5,10.6c-1.6,0-3-1.4-3-3
	c0-1.7,1.3-3,3-3s3,1.4,3,3C10.5,9.2,9.1,10.6,7.5,10.6z"/>
<path fill="#FFFFFF" d="M10.9,1.8c0-0.3,0.2-0.5,0.5-0.5h1.6c0.3,0,0.5,0.2,0.5,0.5v1.6c0,0.3-0.2,0.5-0.5,0.5h-1.6
	c-0.3,0-0.5-0.2-0.5-0.5V1.8z"/>
</svg>
