<?xml version="1.0" encoding="utf-8"?>
<!-- Generator: Adobe Illustrator 18.1.1, SVG Export Plug-In . SVG Version: 6.00 Build 0)  -->
<svg version="1.1" id="Layer_1" xmlns="http://www.w3.org/2000/svg" xmlns:xlink="http://www.w3.org/1999/xlink" x="0px" y="0px"
	 viewBox="0 0 15 15" enable-background="new 0 0 15 15" xml:space="preserve">
<g>
	<path fill="#0591B4" d="M3.2,8.7c0.2,0.1,0.4,0,0.4-0.2c0-0.2,0.1-0.5,0.2-0.7c0.1-0.2,0-0.3-0.1-0.5C3.3,6.9,3.1,6.4,3.1,5.6
		c0-2.2,1.6-4.1,4.2-4.1c2.3,0,3.6,1.4,3.6,3.3c0,2.5-1.1,4.6-2.7,4.6c-0.9,0-1.6-0.7-1.4-1.7c0.3-1.1,0.8-2.3,0.8-3
		c0-0.7-0.4-1.3-1.2-1.3c-0.9,0-1.7,0.9-1.7,2.2C4.8,6.4,5.1,7,5.1,7s-0.9,4-1.1,4.7c-0.3,1.4,0,3.1,0,3.3c0,0.1,0.1,0.1,0.2,0
		c0.1-0.1,1.2-1.5,1.5-2.8c0.1-0.4,0.6-2.4,0.6-2.4c0.3,0.6,1.2,1.1,2.1,1.1c2.8,0,4.6-2.5,4.6-5.9c0-2.5-2.2-4.9-5.4-4.9
		C3.5,0.1,1.4,3,1.4,5.4C1.4,6.9,2,8.2,3.2,8.7z"/>
</g>
</svg>
