<?xml version="1.0" encoding="utf-8"?>
<!-- Generator: Adobe Illustrator 18.1.1, SVG Export Plug-In . SVG Version: 6.00 Build 0)  -->
<svg version="1.1" id="Layer_1" xmlns="http://www.w3.org/2000/svg" xmlns:xlink="http://www.w3.org/1999/xlink" x="0px" y="0px"
	 viewBox="0 0 15 15" enable-background="new 0 0 15 15" xml:space="preserve">
<g>
	<path fill="#0591B4" d="M-0.1,12.5c1.4,0.9,3,1.4,4.7,1.4c5.7,0,9-4.8,8.8-9.2c0.6-0.4,1.1-1,1.5-1.6c-0.6,0.2-1.2,0.4-1.8,0.5
		c0.6-0.4,1.1-1,1.4-1.7c-0.6,0.4-1.3,0.6-2,0.8c-0.6-0.6-1.4-1-2.3-1c-2,0-3.5,1.9-3,3.8C4.8,5.4,2.5,4.1,1,2.3
		c-0.8,1.4-0.4,3.2,1,4.1c-0.5,0-1-0.2-1.4-0.4c0,1.4,1,2.8,2.5,3.1C2.6,9.2,2.1,9.2,1.6,9.1c0.4,1.2,1.5,2.1,2.9,2.1
		C3.2,12.3,1.5,12.7-0.1,12.5z"/>
</g>
</svg>
